<?xml version="1.0" encoding="UTF-8" standalone="no"?>
<!-- Created with Inkscape (http://www.inkscape.org/) -->
<svg xmlns:dc="http://purl.org/dc/elements/1.1/" xmlns:cc="http://creativecommons.org/ns#" xmlns:rdf="http://www.w3.org/1999/02/22-rdf-syntax-ns#" xmlns:svg="http://www.w3.org/2000/svg" xmlns="http://www.w3.org/2000/svg" xmlns:xlink="http://www.w3.org/1999/xlink" xmlns:sodipodi="http://sodipodi.sourceforge.net/DTD/sodipodi-0.dtd" xmlns:inkscape="http://www.inkscape.org/namespaces/inkscape" width="700" height="250" id="svg2" version="1.1" inkscape:version="0.48.4 r9939" sodipodi:docname="New document 1">
  <defs id="defs4">
    <linearGradient id="linearGradient4044">
      <stop style="stop-color:#fffafe;stop-opacity:1;" offset="0" id="stop4046"/>
      <stop id="stop4048" offset="0.5405376" style="stop-color:#fff1fc;stop-opacity:1;"/>
      <stop style="stop-color:#ffb4ee;stop-opacity:1;" offset="1" id="stop4050"/>
    </linearGradient>
    <linearGradient id="linearGradient3946">
      <stop id="stop4003" offset="0" style="stop-color:#ffdff8;stop-opacity:1;"/>
      <stop style="stop-color:#ffd1f5;stop-opacity:1;" offset="0.27069199" id="stop4052"/>
      <stop id="stop3954" offset="1" style="stop-color:#ff8ce5;stop-opacity:1;"/>
    </linearGradient>
    <linearGradient id="linearGradient3938">
      <stop style="stop-color:#ff91e9;stop-opacity:1;" offset="0" id="stop3940"/>
      <stop id="stop4093" offset="1" style="stop-color:#ffccf4;stop-opacity:1;"/>
    </linearGradient>
    <linearGradient id="linearGradient3930">
      <stop id="stop3932" offset="0" style="stop-color:#ecc3f6;stop-opacity:1;"/>
      <stop id="stop3934" offset="1" style="stop-color:#fbd1ff;stop-opacity:1;"/>
    </linearGradient>
    <linearGradient id="linearGradient3842">
      <stop style="stop-color:#100f07;stop-opacity:1;" offset="0" id="stop3844"/>
      <stop style="stop-color:#ffaaee;stop-opacity:1;" offset="1" id="stop3846"/>
    </linearGradient>
    <linearGradient id="linearGradient3828">
      <stop style="stop-color:#f8e1f3;stop-opacity:1;" offset="0" id="stop3830"/>
      <stop id="stop3840" offset="0.79166669" style="stop-color:#fcc6ef;stop-opacity:1;"/>
      <stop id="stop3838" offset="1" style="stop-color:#ffaaee;stop-opacity:1;"/>
      <stop style="stop-color:#ffaaee;stop-opacity:0;" offset="1" id="stop3832"/>
    </linearGradient>
    <linearGradient id="linearGradient3818">
      <stop style="stop-color:#000000;stop-opacity:1;" offset="0" id="stop3820"/>
      <stop style="stop-color:#000000;stop-opacity:0;" offset="1" id="stop3822"/>
    </linearGradient>
    <linearGradient inkscape:collect="always" xlink:href="#linearGradient3842" id="linearGradient3848" x1="467.72122" y1="1026.7197" x2="217.77402" y2="775.78754" gradientUnits="userSpaceOnUse"/>
    <linearGradient inkscape:collect="always" xlink:href="#linearGradient3842" id="linearGradient3884" gradientUnits="userSpaceOnUse" x1="467.72122" y1="1026.7197" x2="217.77402" y2="775.78754"/>
    <linearGradient inkscape:collect="always" xlink:href="#linearGradient3938" id="linearGradient3944" x1="384.31888" y1="957.92761" x2="381.6777" y2="865.82239" gradientUnits="userSpaceOnUse"/>
    <radialGradient inkscape:collect="always" xlink:href="#linearGradient3946" id="radialGradient3956" cx="198.71172" cy="116.99129" fx="198.71172" fy="116.99129" r="34.40625" gradientTransform="matrix(1.5685813,0.00208943,-0.00222724,1.6720205,-111.53813,-83.463813)" gradientUnits="userSpaceOnUse"/>
    <radialGradient inkscape:collect="always" xlink:href="#linearGradient3946-4" id="radialGradient3956-9" cx="190.16176" cy="127.93303" fx="190.16176" fy="127.93303" r="34.40625" gradientTransform="matrix(0.99931714,-0.0169013,0.01758358,1.0396582,-2.5379137,-3.4498312)" gradientUnits="userSpaceOnUse"/>
    <linearGradient id="linearGradient3946-4">
      <stop style="stop-color:#ffffee;stop-opacity:1;" offset="0" id="stop3948-8"/>
      <stop id="stop3962-8" offset="0.61024171" style="stop-color:#fff1ee;stop-opacity:1;"/>
      <stop id="stop3954-2" offset="1" style="stop-color:#ffb4ee;stop-opacity:1;"/>
    </linearGradient>
    <radialGradient inkscape:collect="always" xlink:href="#linearGradient3946-5" id="radialGradient3956-5" cx="190.16176" cy="127.93303" fx="190.16176" fy="127.93303" r="34.40625" gradientTransform="matrix(0.99931714,-0.0169013,0.01758358,1.0396582,-2.5379137,-3.4498312)" gradientUnits="userSpaceOnUse"/>
    <linearGradient id="linearGradient3946-5">
      <stop id="stop4003-1" offset="0" style="stop-color:#fffafe;stop-opacity:1;"/>
      <stop style="stop-color:#fff1fc;stop-opacity:1;" offset="0.5" id="stop4005-7"/>
      <stop id="stop3954-1" offset="1" style="stop-color:#ffb4ee;stop-opacity:1;"/>
    </linearGradient>
    <radialGradient inkscape:collect="always" xlink:href="#linearGradient3946-7" id="radialGradient3956-52" cx="199.3187" cy="118.45042" fx="199.3187" fy="118.45042" r="34.40625" gradientTransform="matrix(1.4421084,0.00265956,-0.00242273,1.3136831,-85.804902,-42.122664)" gradientUnits="userSpaceOnUse"/>
    <linearGradient id="linearGradient3946-7">
      <stop id="stop4003-6" offset="0" style="stop-color:#fffafe;stop-opacity:1;"/>
      <stop style="stop-color:#ffdff8;stop-opacity:1;" offset="0.58333331" id="stop4052-1"/>
      <stop id="stop3954-4" offset="1" style="stop-color:#ffb4ee;stop-opacity:1;"/>
    </linearGradient>
    <linearGradient inkscape:collect="always" xlink:href="#linearGradient3842" id="linearGradient4091" gradientUnits="userSpaceOnUse" x1="338.62891" y1="995.53448" x2="337.43823" y2="513.25146"/>
    <radialGradient inkscape:collect="always" xlink:href="#linearGradient3946-2" id="radialGradient3956-3" cx="199.3187" cy="118.45042" fx="199.3187" fy="118.45042" r="34.40625" gradientTransform="matrix(1.4421084,0.00265956,-0.00242273,1.3136831,-85.804902,-42.122664)" gradientUnits="userSpaceOnUse"/>
    <linearGradient id="linearGradient3946-2">
      <stop id="stop4003-2" offset="0" style="stop-color:#fffafe;stop-opacity:1;"/>
      <stop style="stop-color:#ffd6f6;stop-opacity:1;" offset="0.58333331" id="stop4052-16"/>
      <stop id="stop3954-8" offset="1" style="stop-color:#ff9ae8;stop-opacity:1;"/>
    </linearGradient>
    <radialGradient inkscape:collect="always" xlink:href="#linearGradient3946-6" id="radialGradient3956-7" cx="198.71172" cy="116.99129" fx="198.71172" fy="116.99129" r="34.40625" gradientTransform="matrix(1.5685813,0.00208943,-0.00222724,1.6720205,-111.53813,-83.463813)" gradientUnits="userSpaceOnUse"/>
    <linearGradient id="linearGradient3946-6">
      <stop id="stop4003-18" offset="0" style="stop-color:#ffdff8;stop-opacity:1;"/>
      <stop style="stop-color:#ffd1f5;stop-opacity:1;" offset="0.27069199" id="stop4052-9"/>
      <stop id="stop3954-27" offset="1" style="stop-color:#ff8ce5;stop-opacity:1;"/>
    </linearGradient>
    <radialGradient r="34.40625" fy="116.99129" fx="198.71172" cy="116.99129" cx="198.71172" gradientTransform="matrix(1.5685813,0.00208943,-0.00222724,1.6720205,-39.470822,-83.09705)" gradientUnits="userSpaceOnUse" id="radialGradient4150" xlink:href="#linearGradient3946-6" inkscape:collect="always"/>
  </defs>
  <sodipodi:namedview id="base" pagecolor="#ffffff" bordercolor="#666666" borderopacity="1.0" inkscape:pageopacity="0.0" inkscape:pageshadow="2" inkscape:zoom="1.3788582" inkscape:cx="311.88779" inkscape:cy="177.81366" inkscape:document-units="px" inkscape:current-layer="text2985" showgrid="false" inkscape:window-width="1680" inkscape:window-height="988" inkscape:window-x="-8" inkscape:window-y="-8" inkscape:window-maximized="1"/>
  <metadata id="metadata7">
    <rdf:RDF>
      <cc:Work rdf:about="">
        <dc:format>image/svg+xml</dc:format>
        <dc:type rdf:resource="http://purl.org/dc/dcmitype/StillImage"/>
        <dc:title/>
      </cc:Work>
    </rdf:RDF>
  </metadata>
  <g inkscape:label="Layer 1" inkscape:groupmode="layer" id="layer1" transform="translate(0,-802.36218)">
    <g style="font-size:116.68552399000001000px;font-style:normal;font-variant:normal;font-weight:normal;font-stretch:normal;line-height:125%;letter-spacing:0px;word-spacing:0px;fill:url(#linearGradient4091);fill-opacity:1;stroke:#221c24;stroke-width:5;stroke-miterlimit:4;font-family:Comfortaa;-inkscape-font-specification:Comfortaa" id="text2985">
      <path style="font-weight:bold;stroke:#501644;-inkscape-font-specification:Comfortaa Bold;fill-opacity:1;fill:url(#radialGradient3956);stroke-width:6;stroke-miterlimit:4;stroke-dasharray:none;stroke-linejoin:miter;stroke-linecap:round" d="M 190.46875 93.09375 C 181.65654 93.09381 174.13554 96.20826 167.90625 102.4375 C 161.67694 108.66686 158.5625 116.18786 158.5625 125 L 158.5625 178.34375 C 158.5625 180.05299 159.12948 181.44196 160.25 182.5625 C 161.37051 183.68299 162.79073 184.24997 164.5 184.25 C 166.17127 184.24997 167.56024 183.68299 168.71875 182.5625 C 169.87724 181.44196 170.46874 180.05299 170.46875 178.34375 L 170.46875 149.90625 C 176.16627 154.57823 182.83403 156.90625 190.46875 156.90625 C 194.83682 156.90625 198.88357 156.13209 202.625 154.59375 C 206.36633 153.05542 209.84058 150.71515 213.03125 147.5625 C 219.26049 141.40918 222.37493 133.88818 222.375 125 C 222.37493 120.59395 221.58851 116.49816 220.03125 112.71875 C 218.47386 108.93944 216.14584 105.51422 213.03125 102.4375 C 206.72593 96.20826 199.20493 93.09381 190.46875 93.09375 z M 194.375 128.625 C 198.32673 128.625 201.53125 131.82952 201.53125 135.78125 C 201.53125 139.73298 198.32673 142.9375 194.375 142.9375 C 190.42327 142.9375 187.21875 139.73298 187.21875 135.78125 C 187.21875 131.82952 190.42327 128.625 194.375 128.625 z " transform="translate(0,802.36218)" id="path3853"/>
      <g id="g3921" style="fill:url(#linearGradient3944);fill-opacity:1;stroke-width:6;stroke-miterlimit:4;stroke-dasharray:none;stroke-linejoin:miter;stroke-linecap:butt;stroke:#501644">
        <path id="path3851" style="font-weight:bold;stroke:#501644;-inkscape-font-specification:Comfortaa Bold;fill:url(#linearGradient3944);fill-opacity:1;stroke-width:6;stroke-miterlimit:4;stroke-dasharray:none;stroke-linejoin:miter;stroke-linecap:butt" d="m 103.86647,880.18658 c -4.71001,8e-5 -9.011645,0.81673 -12.904919,2.44994 -3.89335,1.63337 -7.492289,4.1023 -10.79683,7.4068 -3.304594,3.30463 -5.764027,6.89408 -7.378308,10.76834 -1.614319,3.87438 -2.421469,8.16652 -2.421453,12.87643 -1.6e-5,9.26803 3.266567,17.1686 9.799761,23.70175 6.533141,6.53319 14.433715,9.79977 23.701749,9.79976 9.26793,10e-6 17.1685,-3.26657 23.70175,-9.79976 6.53309,-6.53315 9.79967,-14.43372 9.79976,-23.70175 -9e-5,-9.22995 -3.26667,-17.11154 -9.79976,-23.64477 -6.57123,-6.57108 -14.4718,-9.85666 -23.70175,-9.85674 z m 45.58028,33.50151 c -9e-5,12.57259 -4.46316,23.32193 -13.38921,32.24805 -8.88823,8.88816 -19.61857,13.33223 -32.19107,13.33223 -12.610584,0 -23.359924,-4.44407 -32.248052,-13.33223 -8.888164,-8.88813 -13.332237,-19.63747 -13.332233,-32.24805 -4e-6,-12.5725 4.444069,-23.30285 13.332233,-32.19108 8.926112,-8.92605 19.675451,-13.38911 32.248052,-13.3892 12.53451,9e-5 23.26486,4.46315 32.19107,13.3892 4.48198,4.48214 7.83402,9.38201 10.05615,14.69965 2.22195,5.31775 3.33297,11.14822 3.33306,17.49143 z"/>
        <path id="path3857" style="font-weight:bold;fill:url(#linearGradient3944);fill-opacity:1;stroke:#501644;-inkscape-font-specification:Comfortaa Bold;stroke-width:6;stroke-miterlimit:4;stroke-dasharray:none;stroke-linejoin:miter;stroke-linecap:butt" d="m 336.3259,907.36382 c -2.81082,6e-5 -5.43168,0.53183 -7.8626,1.59531 -2.43098,1.06359 -4.53906,2.49747 -6.32427,4.30164 -1.78524,1.80427 -3.20013,3.92185 -4.24466,6.35276 -1.04456,2.43098 -1.56684,5.01386 -1.56682,7.74864 -2e-5,2.73485 0.52226,5.31773 1.56682,7.74865 1.04453,2.43097 2.45942,4.54855 4.24466,6.35275 1.78521,1.80424 3.89329,3.23812 6.32427,4.30164 2.43092,1.06356 5.05178,1.59532 7.8626,1.59531 2.77276,1e-5 5.37463,-0.53175 7.80562,-1.59531 2.4309,-1.06352 4.54848,-2.5069 6.35275,-4.33012 1.80417,-1.8232 3.22855,-3.94078 4.27315,-6.35276 1.0445,-2.41193 1.56677,-4.98531 1.56683,-7.72016 -6e-5,-2.73478 -0.52233,-5.30816 -1.56683,-7.72016 -1.0446,-2.41191 -2.46898,-4.52949 -4.27315,-6.35275 -1.80427,-1.82316 -3.92185,-3.26654 -6.35275,-4.33013 -2.43099,-1.06348 -5.03286,-1.59525 -7.80562,-1.59531 z m 19.99835,45.97911 0,-1.1395 c -2.84882,2.27902 -5.94448,4.02626 -9.28699,5.24173 -3.34259,1.21548 -6.91305,1.82321 -10.71136,1.82321 -8.81222,0 -16.33296,-3.11465 -22.56224,-9.34396 -6.22932,-6.22929 -9.34396,-13.75003 -9.34396,-22.56224 0,-8.81214 3.11464,-16.33288 9.34396,-22.56224 6.22928,-6.22924 13.75002,-9.34389 22.56224,-9.34395 8.73617,6e-5 16.25691,3.11471 22.56224,9.34395 6.22924,6.22936 9.34389,13.7501 9.34396,22.56224 l 0,25.98076 c -7e-5,1.6333 -0.57932,3.0292 -1.73775,4.18769 -1.15857,1.1585 -2.55446,1.73775 -4.18769,1.73775 -1.67134,0 -3.08623,-0.57925 -4.24466,-1.73775 -1.15856,-1.15849 -1.73781,-2.55439 -1.73775,-4.18769 z" inkscape:connector-curvature="0"/>
        <path id="path3859" style="font-weight:bold;fill:url(#linearGradient3944);fill-opacity:1;stroke:#501644;-inkscape-font-specification:Comfortaa Bold;stroke-width:6;stroke-miterlimit:4;stroke-dasharray:none;stroke-linejoin:miter;stroke-linecap:butt" d="m 393.47219,884.11788 c -2e-5,1.93724 -0.68372,3.58952 -2.05111,4.95686 -1.36743,1.36747 -3.01971,2.05118 -4.95686,2.05111 -1.93717,7e-5 -3.58945,-0.68364 -4.95685,-2.05111 -1.36742,-1.36734 -2.05112,-3.01962 -2.05112,-4.95686 0,-1.93708 0.6837,-3.58937 2.05112,-4.95686 1.3674,-1.36732 3.01968,-2.05103 4.95685,-2.05111 1.93715,8e-5 3.58943,0.68379 4.95686,2.05111 1.36739,1.36749 2.05109,3.01978 2.05111,4.95686 z m -12.9334,69.16808 0,-51.84757 c -1e-5,-1.67122 0.57924,-3.08611 1.73774,-4.24467 1.15849,-1.15843 2.55439,-1.73768 4.18769,-1.73774 1.63328,6e-5 3.02918,0.57931 4.18769,1.73774 1.15848,1.15856 1.75672,2.57345 1.79473,4.24467 l 0,51.84757 c -0.038,1.67128 -0.63625,3.08617 -1.79473,4.24466 -1.15851,1.1585 -2.55441,1.73775 -4.18769,1.73775 -1.6333,0 -3.0292,-0.57925 -4.18769,-1.73775 -1.1585,-1.15849 -1.73775,-2.57338 -1.73774,-4.24466 z" inkscape:connector-curvature="0"/>
        <path id="path3861" style="font-weight:bold;fill:url(#linearGradient3944);fill-opacity:1;stroke:#501644;-inkscape-font-specification:Comfortaa Bold;stroke-width:6;stroke-miterlimit:4;stroke-dasharray:none;stroke-linejoin:miter;stroke-linecap:butt" d="m 410.27993,895.45598 2.67784,0 0,-21.42274 c -10e-6,-1.6332 0.57923,-3.0291 1.73775,-4.18769 1.15848,-1.1584 2.57337,-1.73765 4.24466,-1.73774 1.63327,9e-5 3.02917,0.57934 4.18769,1.73774 1.15847,1.15859 1.73772,2.55449 1.73775,4.18769 l 0,21.42274 7.12192,0 c 1.63326,6e-5 3.01965,0.57931 4.1592,1.73774 1.13947,1.15856 1.70922,2.55446 1.70926,4.18769 -4e-5,1.67134 -0.56979,3.08622 -1.70926,4.24467 -1.13955,1.15855 -2.52594,1.7378 -4.1592,1.73774 l -7.12192,0 0,28.65861 c -3e-5,7.55874 3.79833,11.3381 11.39507,11.33809 1.63325,1e-5 3.01965,0.57926 4.1592,1.73775 1.13946,1.15851 1.70922,2.5544 1.70926,4.18769 -4e-5,1.67128 -0.5698,3.08617 -1.70926,4.24466 -1.13955,1.1585 -2.52595,1.73775 -4.1592,1.73775 -15.5353,0 -23.30293,-7.74864 -23.30292,-23.24594 l 0,-28.65861 -2.67784,0 c -1.59532,6e-5 -2.97223,-0.57919 -4.13072,-1.73774 -1.1585,-1.15845 -1.73775,-2.57333 -1.73775,-4.24467 0,-1.63323 0.57925,-3.02913 1.73775,-4.18769 1.15849,-1.15843 2.5354,-1.73768 4.13072,-1.73774 z" inkscape:connector-curvature="0"/>
        <path id="path3863" style="font-weight:bold;fill:url(#linearGradient3944);fill-opacity:1;stroke:#501644;-inkscape-font-specification:Comfortaa Bold;stroke-width:6;stroke-miterlimit:4;stroke-dasharray:none;stroke-linejoin:miter;stroke-linecap:butt" d="m 466.40063,884.11788 c -2e-5,1.93724 -0.68373,3.58952 -2.05111,4.95686 -1.36743,1.36747 -3.01971,2.05118 -4.95686,2.05111 -1.93717,7e-5 -3.58946,-0.68364 -4.95686,-2.05111 -1.36741,-1.36734 -2.05112,-3.01962 -2.05111,-4.95686 -10e-6,-1.93708 0.6837,-3.58937 2.05111,-4.95686 1.3674,-1.36732 3.01969,-2.05103 4.95686,-2.05111 1.93715,8e-5 3.58943,0.68379 4.95686,2.05111 1.36738,1.36749 2.05109,3.01978 2.05111,4.95686 z m -12.93341,69.16808 0,-51.84757 c -10e-6,-1.67122 0.57924,-3.08611 1.73775,-4.24467 1.15849,-1.15843 2.55438,-1.73768 4.18769,-1.73774 1.63328,6e-5 3.02917,0.57931 4.18769,1.73774 1.15848,1.15856 1.75672,2.57345 1.79472,4.24467 l 0,51.84757 c -0.038,1.67128 -0.63624,3.08617 -1.79472,4.24466 -1.15852,1.1585 -2.55441,1.73775 -4.18769,1.73775 -1.63331,0 -3.0292,-0.57925 -4.18769,-1.73775 -1.15851,-1.15849 -1.73776,-2.57338 -1.73775,-4.24466 z" inkscape:connector-curvature="0"/>
        <path id="path3865" style="font-weight:bold;fill:url(#linearGradient3944);fill-opacity:1;stroke:#501644;-inkscape-font-specification:Comfortaa Bold;stroke-width:6;stroke-miterlimit:4;stroke-dasharray:none;stroke-linejoin:miter;stroke-linecap:butt" d="m 567.70281,953.28596 c -9e-5,1.67128 -0.57934,3.08617 -1.73775,4.24466 -1.15859,1.1585 -2.55448,1.73775 -4.18769,1.73775 -1.67136,0 -3.07675,-0.57925 -4.21617,-1.73775 -1.13959,-1.15849 -1.70934,-2.57338 -1.70926,-4.24466 l 0,-32.41898 c -8e-5,-1.82317 -0.35143,-3.55142 -1.05405,-5.18475 -0.70277,-1.63325 -1.66186,-3.06713 -2.87725,-4.30164 -1.21555,-1.23442 -2.64943,-2.2125 -4.30164,-2.93423 -1.65236,-0.72164 -3.42809,-1.08248 -5.3272,-1.08254 -1.86126,6e-5 -3.6085,0.3609 -5.24173,1.08254 -1.63335,0.72173 -3.06723,1.69031 -4.30164,2.90574 -1.23452,1.21552 -2.2031,2.6399 -2.90574,4.27315 -0.70275,1.63334 -1.0541,3.38058 -1.05404,5.24173 l 0,32.41898 c -6e-5,1.67128 -0.57931,3.08617 -1.73775,4.24466 -1.15855,1.1585 -2.55445,1.73775 -4.18769,1.73775 -1.67133,0 -3.08621,-0.57925 -4.24467,-1.73775 -1.15854,-1.15849 -1.73779,-2.57338 -1.73774,-4.24466 l 0,-32.41898 c -5e-5,-1.86115 -0.36089,-3.60839 -1.08254,-5.24173 -0.72173,-1.63325 -1.69031,-3.05763 -2.90574,-4.27315 -1.21551,-1.21543 -2.63989,-2.18401 -4.27315,-2.90574 -1.63333,-0.72164 -3.38057,-1.08248 -5.24173,-1.08254 -1.86123,6e-5 -3.60847,0.3514 -5.24173,1.05405 -1.63332,0.70274 -3.0672,1.67132 -4.30164,2.90574 -1.23449,1.23451 -2.20307,2.66839 -2.90575,4.30164 -0.70271,1.63334 -1.05406,3.38058 -1.05404,5.24173 l 0,32.41898 c -2e-5,1.67128 -0.57927,3.08617 -1.73775,4.24466 -1.15851,1.1585 -2.55441,1.73775 -4.18769,1.73775 -1.67128,0 -3.08617,-0.57925 -4.24466,-1.73775 -1.15851,-1.15849 -1.73775,-2.57338 -1.73775,-4.24466 l 0,-51.90455 c 0,-1.63323 0.57924,-3.02913 1.73775,-4.18769 1.15849,-1.15843 2.55438,-1.73768 4.18769,-1.73774 1.32941,6e-5 2.5069,0.3704 3.53247,1.11102 1.02554,0.74074 1.72823,1.71881 2.10809,2.93423 4.06422,-2.69678 8.67922,-4.04519 13.84501,-4.04525 3.79832,6e-5 7.36877,0.75023 10.71136,2.25052 3.34251,1.50041 6.26725,3.76993 8.77421,6.80856 5.27966,-6.03933 11.75585,-9.05902 19.42859,-9.05908 3.45644,6e-5 6.73252,0.67427 9.82825,2.02262 3.09558,1.34848 5.79241,3.17169 8.0905,5.46963 2.29792,2.29806 4.12113,4.9949 5.46964,8.0905 1.34832,3.09571 2.02253,6.37179 2.02262,9.82825 z" inkscape:connector-curvature="0"/>
        <path id="path3867" style="font-weight:bold;fill:url(#linearGradient3944);fill-opacity:1;stroke:#501644;-inkscape-font-specification:Comfortaa Bold;stroke-width:6;stroke-miterlimit:4;stroke-dasharray:none;stroke-linejoin:miter;stroke-linecap:butt" d="m 629.00831,921.43674 c -0.64577,-2.08906 -1.60486,-3.99773 -2.87725,-5.72603 -1.2725,-1.7282 -2.75386,-3.20956 -4.44408,-4.44407 -1.69032,-1.23442 -3.55151,-2.1935 -5.58359,-2.87726 -2.03216,-0.68365 -4.13075,-1.0255 -6.29577,-1.02556 -2.1651,6e-5 -4.27319,0.34191 -6.32427,1.02556 -2.05114,0.68376 -3.93132,1.64284 -5.64056,2.87726 -1.70928,1.23451 -3.19064,2.71587 -4.44407,4.44407 -1.25348,1.7283 -2.18408,3.63697 -2.7918,5.72603 z m -2.56389,19.8844 c 1.70921,10e-6 3.12409,0.56027 4.24466,1.68077 1.12046,1.12053 1.68072,2.53542 1.68078,4.24466 -6e-5,1.67129 -0.56981,3.09567 -1.70926,4.27315 -5.88751,5.16577 -12.83849,7.74865 -20.85298,7.74865 -8.81222,0 -16.33296,-3.11465 -22.56224,-9.34396 -6.22932,-6.22929 -9.34396,-13.75003 -9.34396,-22.56224 0,-8.81214 3.11464,-16.33288 9.34396,-22.56224 6.22928,-6.22924 13.75002,-9.34389 22.56224,-9.34395 8.73617,6e-5 16.25691,3.11471 22.56224,9.34395 3.11459,3.07672 5.45058,6.50474 7.00797,10.28405 1.55725,3.77941 2.33592,7.87214 2.33599,12.27819 -7e-5,1.70929 -0.57932,3.12418 -1.73775,4.24467 -1.15857,1.12054 -2.57345,1.6808 -4.24467,1.68077 l -45.12448,0 c 0.64571,2.08912 1.59529,3.99779 2.84877,5.72602 1.25344,1.72827 2.7253,3.20963 4.41559,4.44408 1.69024,1.23448 3.55144,2.19357 5.58359,2.87726 2.03208,0.68371 4.14967,1.02556 6.35275,1.02555 2.50687,1e-5 4.80488,-0.37982 6.89402,-1.1395 2.08905,-0.75966 4.02621,-1.89917 5.81148,-3.41853 1.13946,-0.94957 2.44989,-1.44335 3.9313,-1.48135 z" inkscape:connector-curvature="0"/>
      </g>
      <path style="font-size:116.68552399000001000px;font-style:normal;font-variant:normal;font-weight:bold;font-stretch:normal;line-height:125%;letter-spacing:0px;word-spacing:0px;fill:url(#radialGradient4150);fill-opacity:1;stroke:#501644;stroke-width:6;stroke-linecap:round;stroke-linejoin:miter;stroke-miterlimit:4;stroke-dasharray:none;font-family:Comfortaa;-inkscape-font-specification:Comfortaa Bold" d="M 262.53125 93.46875 C 253.71904 93.46881 246.19804 96.58326 239.96875 102.8125 C 233.73944 109.04186 230.625 116.56286 230.625 125.375 L 230.625 178.71875 C 230.625 180.42795 231.19198 181.817 232.3125 182.9375 C 233.43301 184.058 234.85323 184.625 236.5625 184.625 C 238.23377 184.625 239.62274 184.058 240.78125 182.9375 C 241.93974 181.817 242.53124 180.42795 242.53125 178.71875 L 242.53125 150.28125 C 248.22877 154.95315 254.89653 157.28125 262.53125 157.28125 C 266.89932 157.28125 270.94607 156.50705 274.6875 154.96875 C 278.42883 153.43035 281.90308 151.0902 285.09375 147.9375 C 291.32299 141.78418 294.43743 134.26318 294.4375 125.375 C 294.43743 120.96895 293.65101 116.87316 292.09375 113.09375 C 290.53636 109.31444 288.20834 105.88922 285.09375 102.8125 C 278.78843 96.58326 271.26743 93.46881 262.53125 93.46875 z M 266.15625 128.625 C 270.10798 128.625 273.3125 131.82952 273.3125 135.78125 C 273.3125 139.73298 270.10798 142.9375 266.15625 142.9375 C 262.20452 142.9375 259 139.73298 259 135.78125 C 259 131.82952 262.20452 128.625 266.15625 128.625 z " transform="translate(0,802.36218)" id="path3853-9"/>
    </g>
  </g>
</svg>